<svg width="24" height="24" viewBox="0 0 24 24" fill="none" xmlns="http://www.w3.org/2000/svg" class="HeroPill__NakedBitcoinIcon-sc-16ndsef-1 epDkoW"><path d="M12 24C18.6274 24 24 18.6274 24 12C24 5.37258 18.6274 0 12 0C5.37258 0 0 5.37258 0 12C0 18.6274 5.37258 24 12 24Z" fill="#1652F0"></path><path d="M17.274 10.5149C17.5095 8.94294 16.3118 8.09769 14.6753 7.53369L15.2063 5.40369L13.9103 5.08119L13.3928 7.15494C13.0523 7.06944 12.7028 6.98994 12.354 6.91044L12.8753 4.82319L11.5793 4.49994L11.0483 6.62919C10.7663 6.56469 10.4888 6.50169 10.2203 6.43419L10.2218 6.42744L8.43375 5.98119L8.08875 7.36569C8.08875 7.36569 9.051 7.58619 9.03075 7.59969C9.55575 7.73094 9.65025 8.07819 9.6345 8.35419L9.03 10.7804C9.066 10.7894 9.1125 10.8029 9.165 10.8232L9.02775 10.7894L8.18025 14.1884C8.11575 14.3474 7.953 14.5867 7.5855 14.4959C7.599 14.5147 6.6435 14.2612 6.6435 14.2612L6 15.7447L7.6875 16.1654C8.001 16.2442 8.3085 16.3267 8.61075 16.4039L8.0745 18.5579L9.36975 18.8804L9.90075 16.7504C10.2548 16.8457 10.5983 16.9342 10.9343 17.0182L10.4047 19.1392L11.7008 19.4617L12.237 17.3122C14.448 17.7307 16.11 17.5619 16.8098 15.5624C17.3738 13.9529 16.782 13.0237 15.6188 12.4184C16.4663 12.2234 17.1038 11.6662 17.274 10.5149ZM14.3115 14.6684C13.9118 16.2787 11.2005 15.4079 10.3215 15.1897L11.034 12.3359C11.913 12.5557 14.7308 12.9899 14.3115 14.6684ZM14.7128 10.4917C14.3475 11.9564 12.0915 11.2117 11.3603 11.0294L12.0053 8.44194C12.7365 8.62419 15.0938 8.96394 14.7128 10.4917Z" fill="white"></path></svg>