<svg width="680" height="956" viewBox="0 0 680 956" fill="none" xmlns="http://www.w3.org/2000/svg" class="HeroVariant__HeroIndiaImage-sc-1o7093z-7 efRURj"><circle cx="340" cy="428" r="340" fill="#F1F5FE"></circle><g filter="url(#prefix__filter0_dd)"><path d="M481 10H198c-32.032 0-58 25.968-58 58v720c0 32.032 25.968 58 58 58h283c32.032 0 58-25.968 58-58V68c0-32.032-25.968-58-58-58z" fill="url(#prefix__paint0_linear)"></path><path d="M472.489 22H206.511C176.406 22 152 47.222 152 78.335v699.33C152 808.778 176.406 834 206.511 834h265.978C502.594 834 527 808.778 527 777.665V78.335C527 47.222 502.594 22 472.489 22z" fill="url(#prefix__img1)"></path></g><defs><filter id="prefix__filter0_dd" x="48" y="0" width="519" height="956" filterUnits="userSpaceOnUse" color-interpolation-filters="sRGB"><feFlood flood-opacity="0" result="BackgroundImageFix"></feFlood><feColorMatrix in="SourceAlpha" values="0 0 0 0 0 0 0 0 0 0 0 0 0 0 0 0 0 0 127 0"></feColorMatrix><feOffset dx="-32" dy="50"></feOffset><feGaussianBlur stdDeviation="30"></feGaussianBlur><feColorMatrix values="0 0 0 0 0.321569 0 0 0 0 0.321569 0 0 0 0 0.321569 0 0 0 0.25 0"></feColorMatrix><feBlend in2="BackgroundImageFix" result="effect1_dropShadow"></feBlend><feColorMatrix in="SourceAlpha" values="0 0 0 0 0 0 0 0 0 0 0 0 0 0 0 0 0 0 127 0"></feColorMatrix><feOffset dy="15"></feOffset><feGaussianBlur stdDeviation="7.5"></feGaussianBlur><feColorMatrix values="0 0 0 0 0.320833 0 0 0 0 0.320833 0 0 0 0 0.320833 0 0 0 0.1 0"></feColorMatrix><feBlend in2="effect1_dropShadow" result="effect2_dropShadow"></feBlend><feBlend in="SourceGraphic" in2="effect2_dropShadow" result="shape"></feBlend></filter><pattern id="prefix__img1" patternUnits="objectBoundingBox" width="1" height="1" viewBox="0 0 385 812"><image href="https://assets.coinbase.com/assets/india-mobile-app.6513d51a4d3e24c473353f194e3c54c4.svg" width="375" height="812"></image></pattern></defs></svg>