<svg width="64" height="64" viewBox="0 0 64 64" fill="none" xmlns="http://www.w3.org/2000/svg"><path d="M50.1334 0H13.8667V10.6667H50.1334V0Z" fill="#5DE2F8"></path><path d="M49.4933 29.8667H14.5067H0V64H63.9733L64 29.8667H49.4933Z" fill="#CED2DB"></path><path d="M58.6667 29.8667C58.6667 15.1467 46.72 3.20001 32 3.20001C17.28 3.20001 5.33337 15.1467 5.33337 29.8667" fill="#CED2DB"></path><path d="M13.8667 29.8667H50.1334V10.32C45.3867 5.89335 39.0134 3.20001 32 3.20001C24.9867 3.20001 18.6134 5.89335 13.8667 10.32V29.8667Z" fill="#0052FF"></path><path d="M50.1334 29.8667C50.1334 19.84 42.0267 11.7333 32 11.7333C21.9734 11.7333 13.8667 19.84 13.8667 29.8667" fill="#5DE2F8"></path><path fill-rule="evenodd" clip-rule="evenodd" d="M9.33337 29.8667C9.33337 17.4536 19.4786 7.20001 32 7.20001C44.5215 7.20001 54.6667 17.4536 54.6667 29.8667H54.1334C54.1334 17.7465 44.2253 7.73335 32 7.73335C19.7748 7.73335 9.86671 17.7465 9.86671 29.8667H9.33337Z" fill="#0A0B0D"></path><path d="M50.1334 29.8667H13.8667V49.0667H50.1334V29.8667Z" fill="#0052FF"></path><path d="M32 14.9333C23.76 14.9333 17.0667 21.6267 17.0667 29.8667C17.0667 38.1067 23.76 44.8 32 44.8C40.24 44.8 46.9333 38.1067 46.9333 29.8667C46.9333 21.6267 40.24 14.9333 32 14.9333Z" fill="white"></path><path d="M19.2 29.8667C19.2 22.8 24.9333 17.0667 32 17.0667C39.0666 17.0667 44.7999 22.8 44.7999 29.8667H19.2Z" fill="#FFD200"></path><path d="M44.7999 29.8667C44.7999 36.9333 39.0666 42.6667 32 42.6667C24.9333 42.6667 19.2 36.9333 19.2 29.8667H44.7999Z" fill="#0052FF"></path><path fill-rule="evenodd" clip-rule="evenodd" d="M32 20.5333C26.8453 20.5333 22.6666 24.712 22.6666 29.8667C22.6666 35.0213 26.8453 39.2 32 39.2C37.1546 39.2 41.3333 35.0213 41.3333 29.8667C41.3333 24.712 37.1546 20.5333 32 20.5333ZM22.1333 29.8667C22.1333 24.4175 26.5508 20 32 20C37.4492 20 41.8666 24.4175 41.8666 29.8667C41.8666 35.3159 37.4492 39.7333 32 39.7333C26.5508 39.7333 22.1333 35.3159 22.1333 29.8667Z" fill="#0A0B0D"></path><path fill-rule="evenodd" clip-rule="evenodd" d="M9.59997 48.6896L7.6552 46.7448L7.27808 47.1219L9.59997 49.4438L11.9219 47.1219L11.5447 46.7448L9.59997 48.6896Z" fill="#0A0B0D"></path><path fill-rule="evenodd" clip-rule="evenodd" d="M9.86671 29.8667V49.0667H9.33337V29.8667H9.86671Z" fill="#0A0B0D"></path></svg>