<svg width="57" height="64" viewBox="0 0 57 64" fill="none" xmlns="http://www.w3.org/2000/svg"><path d="M28 0L-4 10.6667V32C-4 49.68 10.32 64 28 64C45.68 64 60 49.68 60 32V10.6667L28 0Z" fill="#CED2DB"></path><path d="M28 0L-4 10.6667V32H28V0Z" fill="#0052FF"></path><path d="M28 54.6667C40.5185 54.6667 50.6667 44.5185 50.6667 32C50.6667 19.4816 40.5185 9.33334 28 9.33334C15.4816 9.33334 5.33337 19.4816 5.33337 32C5.33337 44.5185 15.4816 54.6667 28 54.6667Z" fill="white"></path><path d="M28 64C45.68 64 60 49.68 60 32H28V64Z" fill="#0A0B0D"></path><path d="M28 54.6667C40.5067 54.6667 50.6667 44.5067 50.6667 32H28V54.6667Z" fill="#0052FF"></path><path d="M6.42664 30.9333C6.95997 19.8667 15.8666 10.96 26.9333 10.4267V30.9333H6.42664Z" fill="#CED2DB"></path><path d="M25.8667 11.5733V29.8667H7.57337C8.58671 20.24 16.24 12.5867 25.8667 11.5733ZM28 9.33334C15.4934 9.33334 5.33337 19.4933 5.33337 32H28V9.33334Z" fill="#CED2DB"></path><path d="M28 9.33334C15.4934 9.33334 5.33337 19.4933 5.33337 32H28V9.33334Z" fill="#5DE2F8"></path><path d="M28 18.1333C20.3466 18.1333 14.1333 24.3467 14.1333 32C14.1333 39.6533 20.3466 45.8667 28 45.8667C32.08 45.8667 35.7333 44.1067 38.2666 41.3333C38.56 41.0133 38.8533 40.6667 39.12 40.2933C39.3866 39.9467 39.6266 39.5733 39.8666 39.2C40.1066 38.8267 40.32 38.4267 40.5066 38.0267C41.3866 36.2133 41.8666 34.16 41.8666 32.0267C41.8666 24.3467 35.6533 18.1333 28 18.1333Z" fill="#FFD200"></path><path d="M14.1333 32H28V18.1333C20.3466 18.1333 14.1333 24.3467 14.1333 32Z" fill="#0052FF"></path><path fill-rule="evenodd" clip-rule="evenodd" d="M28 21.6C22.2562 21.6 17.6 26.2563 17.6 32C17.6 37.7438 22.2562 42.4 28 42.4C33.7437 42.4 38.4 37.7438 38.4 32C38.4 26.2563 33.7437 21.6 28 21.6ZM17.0667 32C17.0667 25.9617 21.9617 21.0667 28 21.0667C34.0383 21.0667 38.9333 25.9617 38.9333 32C38.9333 38.0383 34.0383 42.9333 28 42.9333C21.9617 42.9333 17.0667 38.0383 17.0667 32Z" fill="#0A0B0D"></path><path fill-rule="evenodd" clip-rule="evenodd" d="M46.4 32C46.4 37.0867 44.3433 41.6871 41.0152 45.0152C37.6871 48.3433 33.0867 50.4 28 50.4V49.8667C32.9399 49.8667 37.4062 47.87 40.6381 44.6381C43.87 41.4062 45.8667 36.9399 45.8667 32H46.4Z" fill="#0A0B0D"></path><path fill-rule="evenodd" clip-rule="evenodd" d="M14.9847 18.9848C18.3128 15.6567 22.9132 13.6 28 13.6V14.1333C23.06 14.1333 18.5938 16.13 15.3619 19.3619C12.13 22.5938 10.1333 27.0601 10.1333 32H9.59998C9.59998 26.9133 11.6567 22.3129 14.9847 18.9848Z" fill="#0A0B0D"></path></svg>